<?xml version="1.0" encoding="UTF-8" standalone="no"?><!-- Generator: Gravit.io --><svg xmlns="http://www.w3.org/2000/svg" xmlns:xlink="http://www.w3.org/1999/xlink" style="isolation:isolate" viewBox="0 0 200 200" width="200pt" height="200pt"><defs><clipPath id="_clipPath_yTimKAxOYmb2a6LoFP1yVbRhA6hoF1wW"><rect width="200" height="200"/></clipPath></defs><g clip-path="url(#_clipPath_yTimKAxOYmb2a6LoFP1yVbRhA6hoF1wW)"><path d=" M 100 204.968 M 100 100 L 100 100 L 100 100 Q 71.992 145.265 56.922 140.486 C 41.853 135.708 6.794 114.689 2.023 109.069 C -2.749 103.449 2.354 101.775 2.833 101.619 C 3.311 101.464 5.651 101.118 9.614 100.988 Q 28.496 100.367 100 100 L 100 100 Z " fill="rgb(255,255,255)"/><path d=" M -4.968 100 M 100 100 L 100 100 L 100 100 Q 54.735 71.992 59.514 56.922 C 64.292 41.853 85.311 6.794 90.931 2.023 C 96.551 -2.749 98.225 2.354 98.381 2.833 C 98.536 3.311 98.882 5.651 99.012 9.614 Q 99.633 28.496 100 100 L 100 100 Z " fill="rgb(255,255,255)"/><path d=" M 100 -4.968 M 100 100 L 100 100 L 100 100 Q 128.008 54.735 143.078 59.514 C 158.147 64.292 193.206 85.311 197.977 90.931 C 202.749 96.551 197.646 98.225 197.167 98.381 C 196.689 98.536 194.349 98.882 190.386 99.012 Q 171.504 99.633 100 100 L 100 100 Z " fill="rgb(255,255,255)"/><path d=" M 204.968 100 M 100 100 L 100 100 L 100 100 Q 145.265 128.008 140.486 143.078 C 135.708 158.147 114.689 193.206 109.069 197.977 C 103.449 202.749 101.775 197.646 101.619 197.167 C 101.464 196.689 101.118 194.349 100.988 190.386 Q 100.367 171.504 100 100 L 100 100 Z " fill="rgb(255,255,255)"/><path d=" M 100 204.968 M 100 100 L 100 100 L 100 100 L 2.462 100 L 100 100 L 100 100 Z " fill="rgb(0,0,0)"/></g></svg>