<?xml version="1.0" encoding="UTF-8" standalone="no"?><!-- Generator: Gravit.io --><svg xmlns="http://www.w3.org/2000/svg" xmlns:xlink="http://www.w3.org/1999/xlink" style="isolation:isolate" viewBox="0 0 200 200" width="200pt" height="200pt"><defs><clipPath id="_clipPath_wRtHX3kwk7GAEHb2Y0HnDreV4g32qpQV"><rect width="200" height="200"/></clipPath></defs><g clip-path="url(#_clipPath_wRtHX3kwk7GAEHb2Y0HnDreV4g32qpQV)"><path d=" M 100 0 C 44.812 0 0 44.812 0 100 C 0 155.188 44.812 200 100 200 C 155.188 200 200 155.188 200 100 C 200 44.812 155.188 0 100 0 Z  M 100 8 C 150.86 8 192 49.14 192 100 C 192 126.704 180.624 150.704 162.5 167.5 C 147.376 156.592 124.468 154.828 119.748 142.124 C 119.622 140.503 119.539 138.878 119.5 137.252 C 124.181 136.771 128.492 135.761 132.293 134.541 C 142.603 131.232 149.156 126.381 149.124 126.372 C 149.092 126.363 149 126.204 149 126.124 C 121.333 107.667 160.28 31.188 115.124 32.876 C 112.284 30.468 107.376 28.376 100.252 28.376 C 41.874 35.039 84.125 105.383 52.124 126.376 L 52.124 126.5 C 52.134 127.257 52.443 127.996 53.022 128.712 C 56.081 132.486 66.689 135.591 80.876 137.124 C 80.828 138.284 80.716 139.72 80.5 142.124 C 75.764 154.844 52.672 156.532 37.5 167.5 C 19.376 150.7 8 126.7 8 100 C 8 49.14 49.14 8 100 8 Z " fill="rgb(255,255,255)"/></g></svg>