<?xml version="1.0" encoding="UTF-8" standalone="no"?><!-- Generator: Gravit.io --><svg xmlns="http://www.w3.org/2000/svg" xmlns:xlink="http://www.w3.org/1999/xlink" style="isolation:isolate" viewBox="0 0 40 40" width="40pt" height="40pt"><defs><clipPath id="_clipPath_ozKibz5EjweBmEbRTQ04xCQbgq8euYBL"><rect width="40" height="40"/></clipPath></defs><g clip-path="url(#_clipPath_ozKibz5EjweBmEbRTQ04xCQbgq8euYBL)"><path d=" M 28.18 6.531 C 25.921 6.531 24.09 8.34 24.09 10.571 C 24.09 10.834 24.127 11.077 24.176 11.33 L 14.459 16.926 C 13.724 16.303 12.788 15.96 11.82 15.959 C 9.561 15.959 7.729 17.768 7.729 20 C 7.729 22.232 9.561 24.041 11.82 24.041 C 12.831 24.041 13.747 23.673 14.462 23.072 L 24.176 28.67 C 24.123 28.92 24.094 29.174 24.09 29.429 C 24.09 31.66 25.921 33.469 28.18 33.469 C 30.439 33.469 32.271 31.66 32.271 29.429 C 32.271 27.197 30.439 25.388 28.18 25.388 C 27.169 25.388 26.253 25.755 25.538 26.356 L 15.824 20.757 C 15.873 20.506 15.91 20.263 15.91 20 C 15.91 19.737 15.873 19.495 15.824 19.242 L 25.54 13.644 C 26.274 14.268 27.211 14.611 28.18 14.612 C 30.439 14.612 32.271 12.803 32.271 10.571 C 32.271 8.34 30.439 6.531 28.18 6.531 Z " fill="rgb(255,255,255)"/></g></svg>